<?xml version="1.0" encoding="UTF-8"?>
<svg width="600" height="80" viewBox="0 0 600 80" xmlns="http://www.w3.org/2000/svg">
  <rect width="100%" height="100%" fill="#0b0e11"/>
  <text x="10" y="22" font-family="Inter, Segoe UI, Roboto, Arial" font-size="12" fill="#E8EDF2" opacity="0.8">Commits last 18 weeks</text>
  <path d="M 10 70 L 44.11764705882353 64.26086956521739 L 78.23529411764706 68.08695652173913 L 112.3529411764706 58.52173913043478 L 146.47058823529412 60.434782608695656 L 180.58823529411765 50.86956521739131 L 214.7058823529412 62.34782608695652 L 248.8235294117647 52.78260869565217 L 282.94117647058823 45.1304347826087 L 317.05882352941177 48.95652173913044 L 351.1764705882353 41.30434782608695 L 385.29411764705884 35.565217391304344 L 419.4117647058824 39.391304347826086 L 453.52941176470586 31.73913043478261 L 487.6470588235294 37.47826086956522 L 521.7647058823529 26 L 555.8823529411765 29.826086956521742 L 590 33.65217391304348" fill="none" stroke="#00B3FF" stroke-width="2" stroke-linecap="round" stroke-linejoin="round" stroke-dasharray="725.666571155675" stroke-dashoffset="725.666571155675">
    <animate attributeName="stroke-dashoffset" from="725.666571155675" to="0" dur="1.4s" fill="freeze"/>
  </path>
  
  <!-- wizard mode ✨ -->
  <g transform="translate(576,24)">
    <g>
      <path d="M0,-6 L1.8,-1.8 L6,0 L1.8,1.8 L0,6 L-1.8,1.8 L-6,0 L-1.8,-1.8 Z"
            fill="none" stroke="#FFD166" stroke-width="1.2">
        <animateTransform attributeName="transform" type="rotate" from="0" to="360" dur="6s" repeatCount="indefinite"/>
      </path>
      <circle r="1.6" fill="#FFD166">
        <animate attributeName="opacity" values="0;1;0" dur="2.2s" repeatCount="indefinite"/>
      </circle>
    </g>
  </g>
</svg>